<svg xmlns="http://www.w3.org/2000/svg" viewBox="0 0 95.09 38.04"><defs><style>.cls-1{fill:#1d1d1b;}</style></defs><g id="Слой_2" data-name="Слой 2"><g id="Слой_1-2" data-name="Слой 1"><path class="cls-1" d="M.35,8.41H1.68V.2H.35V0H2.82l.37,0h.72A4.14,4.14,0,0,1,5.35.21a2.43,2.43,0,0,1,.89.52,1.56,1.56,0,0,1,.45.66A2.3,2.3,0,0,1,6.81,2a1.52,1.52,0,0,1-.18.73,1.89,1.89,0,0,1-.47.59,2.51,2.51,0,0,1-.67.41,3.2,3.2,0,0,1-.81.2V4a4.08,4.08,0,0,1,.88.19,3,3,0,0,1,.82.42A2.12,2.12,0,0,1,7,5.26a1.78,1.78,0,0,1,.23.91,2.47,2.47,0,0,1-.2,1,2.07,2.07,0,0,1-.61.77,3,3,0,0,1-1,.51,4.86,4.86,0,0,1-1.45.19H3.57l-.34,0H.35Zm2.53-4.5H4a2.37,2.37,0,0,0,.61-.08,1.12,1.12,0,0,0,.47-.3A1.41,1.41,0,0,0,5.38,3a3.28,3.28,0,0,0,.11-.91,2.53,2.53,0,0,0-.17-1,1.29,1.29,0,0,0-1-.82A3.36,3.36,0,0,0,3.7.17H3.26L2.88.2Zm0,4.5.32,0,.5,0a3.78,3.78,0,0,0,1-.11A1.36,1.36,0,0,0,5.32,8a1.52,1.52,0,0,0,.38-.71,4.41,4.41,0,0,0,.12-1.12,2.44,2.44,0,0,0-.41-1.51A1.39,1.39,0,0,0,4.2,4.08H2.88Z"/><path class="cls-1" d="M9.75,5.6c0,.08,0,.17,0,.25s0,.19,0,.32a8.19,8.19,0,0,0,0,.83,2.5,2.5,0,0,0,.21.78,1.47,1.47,0,0,0,.48.57,1.43,1.43,0,0,0,.85.23,2,2,0,0,0,.87-.16,1.71,1.71,0,0,0,.54-.37A1.63,1.63,0,0,0,13,7.6l.15-.38.17,0a2.44,2.44,0,0,1-.13.38,1.76,1.76,0,0,1-.33.49,1.78,1.78,0,0,1-.6.43,2.11,2.11,0,0,1-1,.19,3.3,3.3,0,0,1-1.1-.19A2.64,2.64,0,0,1,9.31,8a2.49,2.49,0,0,1-.57-.85A2.89,2.89,0,0,1,8.53,6a2.6,2.6,0,0,1,.21-1,2.93,2.93,0,0,1,.58-.88,2.83,2.83,0,0,1,.86-.62A2.39,2.39,0,0,1,12,3.4a2.08,2.08,0,0,1,1.27,1.1,2.42,2.42,0,0,1,.22,1.1Zm2.47-.16c0-.12,0-.22,0-.32v-.3a2.51,2.51,0,0,0-.08-.67A1.18,1.18,0,0,0,12,3.73a.77.77,0,0,0-.34-.22,1.42,1.42,0,0,0-.42-.07,1.27,1.27,0,0,0-.68.17,1.24,1.24,0,0,0-.42.43,2.42,2.42,0,0,0-.23.64,4.5,4.5,0,0,0-.1.76Z"/><path class="cls-1" d="M19.73,8.45a1.88,1.88,0,0,1-.37.21,1.4,1.4,0,0,1-.53.09A1.15,1.15,0,0,1,18,8.5a1.27,1.27,0,0,1-.36-.69h0c0,.07-.08.16-.13.27a1.23,1.23,0,0,1-.26.31,1.54,1.54,0,0,1-.46.26,2.54,2.54,0,0,1-.74.1,2.21,2.21,0,0,1-.8-.12,1.25,1.25,0,0,1-.47-.28A.86.86,0,0,1,14.54,8a1.39,1.39,0,0,1,0-.39,1.09,1.09,0,0,1,.6-1.07,3.27,3.27,0,0,1,.6-.25l.67-.2L17,5.83a1.08,1.08,0,0,0,.4-.23.65.65,0,0,0,.2-.35,2.16,2.16,0,0,0,.06-.57,4.07,4.07,0,0,0,0-.52,1.12,1.12,0,0,0-.13-.39.66.66,0,0,0-.28-.24,1.08,1.08,0,0,0-.48-.09,1.39,1.39,0,0,0-.65.14.47.47,0,0,0-.26.45,1.75,1.75,0,0,0,0,.4,2.27,2.27,0,0,1,0,.3.38.38,0,0,1-.12.28.48.48,0,0,1-.35.11c-.26,0-.43,0-.49-.14a.7.7,0,0,1-.1-.37A1.13,1.13,0,0,1,15,4.1a1.19,1.19,0,0,1,.36-.42,1.82,1.82,0,0,1,.59-.3,2.8,2.8,0,0,1,.81-.1,2.76,2.76,0,0,1,.92.13,1.63,1.63,0,0,1,.6.38,1.44,1.44,0,0,1,.33.52,2.16,2.16,0,0,1,.09.62v3a.75.75,0,0,0,.11.47.4.4,0,0,0,.31.12,1,1,0,0,0,.28,0,1.16,1.16,0,0,0,.27-.14Zm-2.1-2.81h0c0,.1-.15.21-.4.31l-.9.36a1.35,1.35,0,0,0-.59.44,1.14,1.14,0,0,0-.2.7,2.31,2.31,0,0,0,0,.37,1,1,0,0,0,.14.35.64.64,0,0,0,.27.24.83.83,0,0,0,.45.1,1.05,1.05,0,0,0,1-.59,2,2,0,0,0,.17-.55,3.4,3.4,0,0,0,0-.53Z"/><path class="cls-1" d="M26.59,8.58H24.66V7.37h0c-.08.16-.16.32-.26.48A2,2,0,0,1,24,8.3a1.82,1.82,0,0,1-.52.32,1.67,1.67,0,0,1-.69.13A2.39,2.39,0,0,1,22,8.64a2.06,2.06,0,0,1-.47-.23,2,2,0,0,1-.18-.15A1,1,0,0,1,21.18,8,1.63,1.63,0,0,1,21,7.61,2.52,2.52,0,0,1,21,7V3.6h-.93V3.43h2V7.12a3.4,3.4,0,0,0,0,.57,1.25,1.25,0,0,0,.16.46,1,1,0,0,0,.31.32,1.07,1.07,0,0,0,.51.11,1,1,0,0,0,.54-.16A1.77,1.77,0,0,0,24.09,8a2.3,2.3,0,0,0,.39-.69,2.59,2.59,0,0,0,.16-.91V3.6h-.92V3.43h2v5h.92Z"/><path class="cls-1" d="M27.08,3.43H28V1.88a.64.64,0,0,0,.18.06,1,1,0,0,0,.29,0,1.37,1.37,0,0,0,.31,0A.89.89,0,0,0,29,1.79V3.43h1.71V3.6H29V7.52a1.67,1.67,0,0,0,.07.55.74.74,0,0,0,.17.32.46.46,0,0,0,.23.15.77.77,0,0,0,.25,0,.83.83,0,0,0,.68-.31,1.47,1.47,0,0,0,.33-.7l.17.06a3.42,3.42,0,0,1-.11.35,1.29,1.29,0,0,1-.22.37,1.15,1.15,0,0,1-.39.28,1.34,1.34,0,0,1-.6.12,1.81,1.81,0,0,1-1.26-.35,1.33,1.33,0,0,1-.35-1V3.6h-.93Z"/><path class="cls-1" d="M30.82,3.43h2.94V3.6h-1L34.3,7.37,35.92,3.6h-1V3.43h1.84V3.6h-.65l-2,4.63c-.15.35-.3.69-.43,1s-.28.7-.41,1.05a8.06,8.06,0,0,1-.34.76,2.47,2.47,0,0,1-.35.52,1.4,1.4,0,0,1-.4.31,1.19,1.19,0,0,1-.51.1,1.14,1.14,0,0,1-.56-.11,1.06,1.06,0,0,1-.33-.25.61.61,0,0,1-.15-.3.92.92,0,0,1,0-.26.58.58,0,0,1,.17-.45.59.59,0,0,1,.41-.15.58.58,0,0,1,.18,0l.18.06a.57.57,0,0,1,.14.13.37.37,0,0,1,.06.21.55.55,0,0,1-.1.32.56.56,0,0,0-.1.33.22.22,0,0,0,.08.2.49.49,0,0,0,.23.05.68.68,0,0,0,.35-.09,1,1,0,0,0,.32-.3,2.32,2.32,0,0,0,.31-.53c.11-.22.22-.49.35-.81l.53-1.34L31.64,3.6h-.82Z"/><path class="cls-1" d="M.19,16.88H.72V12H.19v-.1H1.33v2.61h0a1,1,0,0,1,.34-.46.92.92,0,0,1,.62-.19,1.25,1.25,0,0,1,.57.13,1.53,1.53,0,0,1,.46.34,1.56,1.56,0,0,1,.33.5,1.53,1.53,0,0,1,.12.6,1.39,1.39,0,0,1-.13.61,1.65,1.65,0,0,1-.33.52,1.42,1.42,0,0,1-.49.35,1.27,1.27,0,0,1-.58.14,1,1,0,0,1-.4-.08,1.17,1.17,0,0,1-.27-.19.89.89,0,0,1-.17-.24.75.75,0,0,1-.08-.2h0V17H.19Zm2.89-1.5a4.8,4.8,0,0,0,0-.58,1.34,1.34,0,0,0-.12-.44.68.68,0,0,0-.25-.28.79.79,0,0,0-.4-.1.83.83,0,0,0-.43.1.75.75,0,0,0-.27.23.72.72,0,0,0-.12.21.89.89,0,0,0-.07.26,1.79,1.79,0,0,0,0,.36c0,.13,0,.29,0,.47a3.83,3.83,0,0,0,0,.47,1.48,1.48,0,0,0,.13.45.87.87,0,0,0,.28.32.77.77,0,0,0,.47.13.87.87,0,0,0,.46-.11A.73.73,0,0,0,3,16.55,1.75,1.75,0,0,0,3.06,16C3.07,15.84,3.08,15.62,3.08,15.38Z"/><path class="cls-1" d="M4,14H5.71v.1H5.13L6,16.27l1-2.19H6.39V14H7.46v.1H7.09l-1.16,2.7c-.09.2-.17.4-.25.6L5.44,18c-.06.16-.13.31-.19.44a1.94,1.94,0,0,1-.21.3.69.69,0,0,1-.24.18.65.65,0,0,1-.29.06.73.73,0,0,1-.32-.06.53.53,0,0,1-.2-.15.56.56,0,0,1-.09-.17,1.15,1.15,0,0,1,0-.16.33.33,0,0,1,.34-.35h.1l.11,0a.3.3,0,0,1,.08.08.21.21,0,0,1,0,.12.32.32,0,0,1-.06.18.36.36,0,0,0-.06.2c0,.06,0,.1.05.11a.23.23,0,0,0,.13,0,.41.41,0,0,0,.21-.05A.56.56,0,0,0,5,18.64a1.7,1.7,0,0,0,.18-.31l.21-.48.3-.78-1.21-3H4Z"/><path class="cls-1" d="M0,33.13H.23a8.55,8.55,0,0,0,.61,1.94,5.49,5.49,0,0,0,.82,1.3,3.38,3.38,0,0,0,.94.79,4.16,4.16,0,0,0,1,.41,5.93,5.93,0,0,0,1,.15l.86,0a4.48,4.48,0,0,0,1.86-.34,3.24,3.24,0,0,0,1.15-.87A3.17,3.17,0,0,0,9,35.4a4.23,4.23,0,0,0,.17-1.11A2.78,2.78,0,0,0,8.91,33a3,3,0,0,0-.7-.91,4.26,4.26,0,0,0-.93-.61,7.56,7.56,0,0,0-1-.36l-2.45-.75A6.29,6.29,0,0,1,1.27,29a3.16,3.16,0,0,1-.89-2.35,4.74,4.74,0,0,1,.34-1.78,4.2,4.2,0,0,1,1-1.41,4.56,4.56,0,0,1,1.49-.94,5,5,0,0,1,1.88-.34,5.51,5.51,0,0,1,1.25.12,7.16,7.16,0,0,1,.86.29l.65.29A1.37,1.37,0,0,0,8.4,23a.63.63,0,0,0,.37-.08A1.38,1.38,0,0,0,9,22.54h.3V26.4H9.08a5.87,5.87,0,0,0-.44-1.48,4.3,4.3,0,0,0-.8-1.26,3.62,3.62,0,0,0-2.79-1.2,5.3,5.3,0,0,0-1.13.13,4,4,0,0,0-1.15.48,2.91,2.91,0,0,0-.88.9,2.54,2.54,0,0,0-.35,1.41,2.34,2.34,0,0,0,.27,1.16,2.66,2.66,0,0,0,.72.81,4.22,4.22,0,0,0,1,.55c.36.15.72.28,1.09.4l2.58.81c.27.08.61.19,1,.34a4.37,4.37,0,0,1,1.2.64,3.55,3.55,0,0,1,1,1.13A3.44,3.44,0,0,1,10.83,33a5.1,5.1,0,0,1-.37,1.9,4.71,4.71,0,0,1-1.08,1.6,5.21,5.21,0,0,1-1.71,1.11A5.76,5.76,0,0,1,5.41,38H4.63A5.82,5.82,0,0,1,4,38l-.6-.09c-.2,0-.42-.09-.66-.16l-.92-.3A2.77,2.77,0,0,0,1,37.25a.58.58,0,0,0-.44.13,1.09,1.09,0,0,0-.2.34H0Z"/><path class="cls-1" d="M14.07,30.11A7.4,7.4,0,0,1,14.74,27a8.77,8.77,0,0,1,1.73-2.51,8.13,8.13,0,0,1,2.37-1.68,6.38,6.38,0,0,1,2.65-.6,6.64,6.64,0,0,1,2.74.6,8,8,0,0,1,2.37,1.68A8.25,8.25,0,0,1,28.28,27a8,8,0,0,1,.62,3.16A7.82,7.82,0,0,1,28.33,33a8.25,8.25,0,0,1-1.58,2.53,7.93,7.93,0,0,1-2.35,1.79,6.36,6.36,0,0,1-2.91.69,6.73,6.73,0,0,1-3-.66,7.59,7.59,0,0,1-2.35-1.76,8.1,8.1,0,0,1-1.55-2.54A8.19,8.19,0,0,1,14.07,30.11Zm2.45,0a19.12,19.12,0,0,0,.26,3.34,6.65,6.65,0,0,0,.85,2.39,3.81,3.81,0,0,0,1.53,1.43,5.23,5.23,0,0,0,2.33.47,5.2,5.2,0,0,0,2.31-.47,3.71,3.71,0,0,0,1.54-1.43,6.65,6.65,0,0,0,.86-2.39,19.2,19.2,0,0,0,.25-3.34,20.36,20.36,0,0,0-.19-2.85,8,8,0,0,0-.73-2.45A4.45,4.45,0,0,0,24,23.09a4.55,4.55,0,0,0-2.52-.63,4.58,4.58,0,0,0-2.53.63,4.34,4.34,0,0,0-1.51,1.72,7.71,7.71,0,0,0-.74,2.45A20.36,20.36,0,0,0,16.52,30.11Z"/><path class="cls-1" d="M31,37.42h2.37V22.84H31v-.3h4.56l.52,0h1a16.18,16.18,0,0,1,2.22.13,3.8,3.8,0,0,1,1.79.8,3.34,3.34,0,0,1,1,1.3,3.46,3.46,0,0,1,.31,1.37,3.67,3.67,0,0,1-.12.82,2.71,2.71,0,0,1-.51,1,3.71,3.71,0,0,1-1.14,1,5.21,5.21,0,0,1-2,.59v0c.23,0,.54.08.93.16a5.7,5.7,0,0,1,1.19.39A4.36,4.36,0,0,1,42,30.8,2.5,2.5,0,0,1,42.67,32a5.21,5.21,0,0,1,.19,1c0,.37.06.74.08,1.12s0,.76.06,1.11a6.17,6.17,0,0,0,.12.9,3.29,3.29,0,0,0,.41,1,1,1,0,0,0,.89.45,1.75,1.75,0,0,0,.58-.11,1.5,1.5,0,0,0,.53-.34l.19.23-.24.18a1.43,1.43,0,0,1-.35.18,2.26,2.26,0,0,1-.53.14,4,4,0,0,1-.75.06,3.89,3.89,0,0,1-1.42-.22,2.07,2.07,0,0,1-.91-.63,2.7,2.7,0,0,1-.5-1,8.5,8.5,0,0,1-.22-1.42l-.15-1.94A4,4,0,0,0,40.22,31a2.2,2.2,0,0,0-.8-.87,2.12,2.12,0,0,0-1-.33,7,7,0,0,0-.85-.06H35.49v7.7h2.37v.3H31Zm4.5-8h2a3.73,3.73,0,0,0,1.09-.15,1.86,1.86,0,0,0,.84-.53,2.26,2.26,0,0,0,.54-1,5.63,5.63,0,0,0,.2-1.62,4.62,4.62,0,0,0-.29-1.78,2.32,2.32,0,0,0-1.77-1.46,6.16,6.16,0,0,0-1.12-.11l-.78,0a4.17,4.17,0,0,0-.67.05Z"/><path class="cls-1" d="M47.19,30.11A7.55,7.55,0,0,1,47.86,27a9,9,0,0,1,1.73-2.51A8.17,8.17,0,0,1,52,22.76a6.33,6.33,0,0,1,2.64-.6,6.61,6.61,0,0,1,2.74.6,8,8,0,0,1,2.38,1.68A8.41,8.41,0,0,1,61.4,27,7.86,7.86,0,0,1,62,30.11,7.64,7.64,0,0,1,61.45,33a8.42,8.42,0,0,1-1.57,2.53,8,8,0,0,1-2.36,1.79,6.3,6.3,0,0,1-2.91.69,6.69,6.69,0,0,1-3-.66,7.64,7.64,0,0,1-2.36-1.76,8.08,8.08,0,0,1-1.54-2.54A8.2,8.2,0,0,1,47.19,30.11Zm2.45,0a19.12,19.12,0,0,0,.26,3.34,6.65,6.65,0,0,0,.85,2.39,3.77,3.77,0,0,0,1.54,1.43,5.94,5.94,0,0,0,4.63,0,3.73,3.73,0,0,0,1.55-1.43,6.65,6.65,0,0,0,.85-2.39,19.12,19.12,0,0,0,.26-3.34,22,22,0,0,0-.19-2.85,8,8,0,0,0-.74-2.45,4.42,4.42,0,0,0-1.51-1.72,5.4,5.4,0,0,0-5.06,0,4.42,4.42,0,0,0-1.51,1.72,7.71,7.71,0,0,0-.73,2.45A20.34,20.34,0,0,0,49.64,30.11Z"/><path class="cls-1" d="M64.12,37.42h2.36V22.84H64.12v-.3h6.69v.3h-2.2v6.78h.22l6.44-6.78H73.05v-.3h4.41v.3H75.69l-5.41,5.73L78,37.42h1.41v.3H73.26v-.3h1.92l-6.39-7.5h-.18v7.5h2.2v.3H64.12Z"/><path class="cls-1" d="M79.25,37.42h1.88l5.75-15.26h.51l5.8,15.26h1.9v.3H88.52v-.3h2.37l-2.24-5.93H83.71l-2.24,5.93h2.36v.3H79.25ZM86.18,25l-2.35,6.2h4.69Z"/></g></g></svg>