<svg xmlns="http://www.w3.org/2000/svg" viewBox="0 0 538.54 421.29"><g id="Слой_2" data-name="Слой 2"><g id="Objects"><path d="M518.7,17.72c-.13-.14-.25-.28-.38-.41-.32-.32-.66-.61-1-.89A63.73,63.73,0,0,0,474.58,0H64A63.71,63.71,0,0,0,21.22,16.42a12,12,0,0,0-1,.89c-.14.13-.25.27-.38.41A63.76,63.76,0,0,0,0,64V357.33a63.76,63.76,0,0,0,19.84,46.24c.13.14.24.28.38.41a12,12,0,0,0,1,.89A63.71,63.71,0,0,0,64,421.29H474.58a63.69,63.69,0,0,0,42.74-16.43,11.66,11.66,0,0,0,1-.88c.13-.13.25-.27.38-.41a63.76,63.76,0,0,0,19.84-46.24V64A63.76,63.76,0,0,0,518.7,17.72ZM344.17,210.65,508.93,44A39.49,39.49,0,0,1,514.32,64V357.33a39.49,39.49,0,0,1-5.39,19.94ZM474.58,24.22A39.46,39.46,0,0,1,491,27.76L318.64,202h0l0,0-30,30.37a27.16,27.16,0,0,1-38.62,0l-30-30.37,0,0h0L47.58,27.76A39.51,39.51,0,0,1,64,24.22Zm-445,353a39.58,39.58,0,0,1-5.38-19.94V64A39.58,39.58,0,0,1,29.6,44L194.37,210.65ZM64,397.07a39.51,39.51,0,0,1-16.38-3.54L211.4,227.87l21.33,21.58a51.39,51.39,0,0,0,73.07,0l21.34-21.58L491,393.53a39.46,39.46,0,0,1-16.37,3.54Z"/></g></g></svg>