<svg xmlns="http://www.w3.org/2000/svg" viewBox="0 0 57.42 61.05"><defs><style>.cls-1{fill:#221f20;fill-rule:evenodd;}</style></defs><g id="Слой_2" data-name="Слой 2"><g id="_15" data-name="15"><path class="cls-1" d="M9.72,27.39H9.8V24a.53.53,0,0,1,.51-.57h4.74a.52.52,0,0,1,.48.57v3.44h23v-3.2a.55.55,0,0,1,.51-.57h4.74a.54.54,0,0,1,.48.57v3.39L50.4,49.22l-2,3.85a1.63,1.63,0,0,0,.59-.14c2.66-1.1,4.49-6.4,2.9-11.8A19.58,19.58,0,0,0,48.39,35c-1.83-2.47-3.55-4.78-3.42-7.9a6.55,6.55,0,0,1,1.59-3.71C35.32,19.83,52.1,10.91,28.92,9.78,4,8.59,23.76,22.68,7.14,22.09c-8.5.62-7.12-6.13-7-10.73C.39,6.07,11.79-.76,29.3.07s28.31,8.74,28.12,14c-.19,4.6,0,12.78-7.77,10a12,12,0,0,1-1.18-.21,5.27,5.27,0,0,0-1.8,3.28c-.11,2.42,1.34,4.35,3,6.61a21.43,21.43,0,0,1,3.82,6.72,16.46,16.46,0,0,1,.32,8c-.06.25-.11.49-.19.73-.73,2.72-2.2,4.71-4.06,5.49a3.58,3.58,0,0,1-2.07.1c.11-.19.19-.4.3-.62l-3.63,6.86H9.72L3.48,50ZM27,30.86a11,11,0,0,1,4.57,1h0a11.83,11.83,0,0,1,3.87,2.9h0A14.43,14.43,0,0,1,38,39.11h0a14.65,14.65,0,0,1,.91,5.11A14.48,14.48,0,0,1,38,49.3v0a13.61,13.61,0,0,1-2.58,4.33h0a12.73,12.73,0,0,1-3.87,2.9,11,11,0,0,1-9.14,0,12.5,12.5,0,0,1-3.9-2.9h0a13.61,13.61,0,0,1-2.58-4.33v0A14.27,14.27,0,0,1,15,44.22a14.43,14.43,0,0,1,.92-5.11h0a13.29,13.29,0,0,1,2.58-4.33h0a11.64,11.64,0,0,1,3.9-2.9h0a10.91,10.91,0,0,1,4.57-1Zm3.68,9.25A5.45,5.45,0,0,0,29,38.84a4.79,4.79,0,0,0-2-.43,5,5,0,0,0-2,.43,5.49,5.49,0,0,0-1.67,1.27A6.09,6.09,0,0,0,22.12,42a6.73,6.73,0,0,0,0,4.46,6.47,6.47,0,0,0,1.15,1.88A5,5,0,0,0,27,50a4.79,4.79,0,0,0,2-.43h0a5.45,5.45,0,0,0,1.69-1.27,5.65,5.65,0,0,0,1.13-1.88,6.42,6.42,0,0,0,0-4.46,5.37,5.37,0,0,0-1.13-1.88Z"/></g></g></svg>