<svg xmlns="http://www.w3.org/2000/svg" viewBox="0 0 992.33 964"><g id="Слой_2" data-name="Слой 2"><g id="objects"><path d="M967.53,8A52.07,52.07,0,0,0,913,7.5L22.46,541.57a46.65,46.65,0,0,0,7.91,83.59L281,718,433.78,947.08a37.91,37.91,0,0,0,28.71,16.81c1,.07,2,.11,3,.11a38,38,0,0,0,28-12.32L600,836.24l254.1,94.09a50.85,50.85,0,0,0,68.44-43.53L992.14,56.94A52.29,52.29,0,0,0,967.53,8ZM316.08,705.57,776.67,253.78a4.06,4.06,0,0,1,.62-.51,2.62,2.62,0,0,1,1.36,1.16,3.58,3.58,0,0,1-.4.7L432.6,750.07c-.08.11-.14.22-.21.33-.2.3-.4.6-.58.91l-.15.26a19.38,19.38,0,0,0-1.25,2.64,18,18,0,0,0-.89,9.11L439.73,891ZM477.87,915.43l-10.25-128.2,95.78,35.46ZM956.2,53.93,886.58,883.8a14.8,14.8,0,0,1-20,12.71L475.48,751.67,807.83,275.79A37.12,37.12,0,0,0,751.41,228L288.34,682.25,42.91,591.34a10.25,10.25,0,0,1-6.78-8.93A10.15,10.15,0,0,1,41,572.49L931.53,38.42a15.87,15.87,0,0,1,17,.16A16.19,16.19,0,0,1,956.2,53.93Z"/></g></g></svg>