<svg xmlns="http://www.w3.org/2000/svg" viewBox="0 0 60.6 61.08"><defs><style>.cls-1{fill:#1d262d;fill-rule:evenodd;}</style></defs><g id="Слой_2" data-name="Слой 2"><g id="OBJECTS"><path class="cls-1" d="M44.8,36.51c-.74-.41-4.41-2.38-5.09-2.66s-1.19-.43-1.73.31-2,2.4-2.51,2.89-.91.54-1.66.13a21,21,0,0,1-6-4,22.55,22.55,0,0,1-4-5.42c-.42-.77,0-1.17.39-1.53s.79-.86,1.19-1.29a5.3,5.3,0,0,0,.81-1.24,1.39,1.39,0,0,0,0-1.33c-.17-.39-1.55-4.18-2.13-5.73s-1.21-1.31-1.66-1.33-.94-.1-1.45-.12a2.76,2.76,0,0,0-2.06.88A8.47,8.47,0,0,0,16,22.3c-.14,3.74,2.45,7.45,2.81,8s4.94,8.62,12.54,12,7.65,2.32,9,2.24,4.57-1.67,5.27-3.41a6.3,6.3,0,0,0,.57-3.6c-.17-.32-.67-.53-1.42-.94Zm-13.95,18a24.58,24.58,0,0,1-13.62-4.1l-9.52,3,3.09-9.2A24.76,24.76,0,1,1,30.85,54.52ZM30.85,0A29.75,29.75,0,0,0,5.37,45.11L0,61.08,16.47,55.8A29.75,29.75,0,1,0,30.85,0Z"/></g></g></svg>