<svg xmlns="http://www.w3.org/2000/svg" viewBox="0 0 77.03 77.03"><defs><style>.cls-1{fill:#0a000f;}</style></defs><g id="Слой_2" data-name="Слой 2"><g id="Elements"><path class="cls-1" d="M53.45,77H23.58A23.61,23.61,0,0,1,0,53.45V23.58A23.61,23.61,0,0,1,23.58,0H53.45A23.61,23.61,0,0,1,77,23.58V53.45A23.61,23.61,0,0,1,53.45,77ZM23.58,5.77A17.83,17.83,0,0,0,5.77,23.58V53.45A17.83,17.83,0,0,0,23.58,71.26H53.45A17.83,17.83,0,0,0,71.26,53.45V23.58A17.83,17.83,0,0,0,53.45,5.77Z"/><path class="cls-1" d="M38.51,58A19.49,19.49,0,1,1,58,38.51,19.51,19.51,0,0,1,38.51,58Zm0-33.06A13.58,13.58,0,1,0,52.09,38.51,13.59,13.59,0,0,0,38.51,24.94Z"/><path class="cls-1" d="M65.19,16.91a5.07,5.07,0,1,1-5.07-5.07A5.07,5.07,0,0,1,65.19,16.91Z"/></g></g></svg>