<svg xmlns="http://www.w3.org/2000/svg" viewBox="0 0 82.19 44.72"><defs><style>.cls-1{fill:#d1d1d1;}.cls-2{fill:#010101;}</style></defs><g id="Слой_2" data-name="Слой 2"><g id="Слой_1-2" data-name="Слой 1"><g id="Слой_2-2" data-name="Слой 2"><g id="Слой_1-2-2" data-name="Слой 1-2"><path class="cls-1" d="M5.58,43.93c5.17,0,8.2-3.78,8.2-8.56,0-6.2-7.11-6.84-7.11-11.41,0-3.75,4.09-7.47,7.87-7.47,1.3,0,1.09,1.67,1.09,1.67A2.67,2.67,0,0,0,14.57,18C12.16,18,9,20.7,9,24.05c0,4.15,7.08,5.6,7.08,11.32,0,4.69-4.36,9.35-10.5,9.35-8.56,0-5-10.41,1.91-10.41a1.15,1.15,0,0,1,1.12,1.06C2.71,35.38-.74,43.93,5.58,43.93Zm9.59-19.81c0-4.08,1-6.84,2.54-6.84a.73.73,0,0,1,.73.72v0a9,9,0,0,0-2.21,6.38C16.23,24.69,15.17,24.6,15.17,24.12Z"/><path class="cls-1" d="M23,39.09c2.29,0,5.14-6,5.14-11.8v-.36A4.7,4.7,0,0,1,26,24a1.34,1.34,0,0,1,1.15-1.08c.82,0,1.61,1.72,1.88,3.35a3.23,3.23,0,0,0,1.81.64,1.94,1.94,0,0,0,1-.24,1.07,1.07,0,0,1-1.09,1.09,4.65,4.65,0,0,1-1.61-.31c-.06,5.78-2.91,12.74-6.45,12.74-6.74,0-3.17-14.49,2.12-14.49a.9.9,0,0,1,.94.72C21.67,26.41,19.07,39.09,23,39.09Z"/><path class="cls-1" d="M43.06,24.87S41.22,26.75,41.22,31c0,.15-.06.24-.15.24-1.37,0-1.45-3.14-.61-5.17-2.93,2.57-7.14,11.22-7.14,13a.41.41,0,0,1-.42.36c-.73,0-.94-.76-.94-2.39,0-5.78,1.33-11.83,3.12-11.83.39,0,.57.24.57.67a60.7,60.7,0,0,0-2,9h.22c1.93-4.41,5.53-10.65,8.5-10.65a.66.66,0,0,1,.69.62Z"/><path class="cls-1" d="M47.05,39.09c2.3,0,5.15-6,5.15-11.8v-.36A4.7,4.7,0,0,1,50.05,24a1.35,1.35,0,0,1,1.15-1.08c.82,0,1.61,1.72,1.88,3.35a3.23,3.23,0,0,0,1.81.64,1.94,1.94,0,0,0,1-.24,1.07,1.07,0,0,1-1.09,1.09,4.65,4.65,0,0,1-1.61-.31c-.06,5.78-2.9,12.74-6.44,12.74-6.75,0-3.18-14.49,2.11-14.49a.9.9,0,0,1,.94.72C45.75,26.41,43.15,39.09,47.05,39.09Z"/><path class="cls-1" d="M62.09,16.55a.43.43,0,0,1,.48.38.2.2,0,0,1,0,.11,49.74,49.74,0,0,0-2.78,8.62c-.67,2.72-1.24,5.81-1.64,8.44h.25c1.54-4,4-8.87,6.89-8.87,3.82,0,2.09,6.81-2,8.11.88.76,1.72,7.74,4,7.74a1.32,1.32,0,0,0,1.21-.57c.55,0-.33,1.61-1.61,1.61-3.57,0-5.23-8-5.81-8.74A.72.72,0,0,1,60.9,33C65.2,33,67,26.08,65,26.08c-3,0-7.29,11.92-7.29,12.89a.38.38,0,0,1-.4.36h0c-.66,0-.9-.75-.9-2.41C56.34,26.81,59.82,16.55,62.09,16.55Z"/><path class="cls-1" d="M80.33,42.27c.85,0,1.21-1.27,1.21-1.27a.45.45,0,0,1,.42-.34c.31,0,.22.34.22.34s-.73,2.29-1.93,2.29c-1.79,0-2.64-2.66-2.64-5.93a25.86,25.86,0,0,1,.34-4h-.31c-1.84,3.15-4.26,6.57-5.77,6.57C66.6,39.91,70.38,25,77,25a2.37,2.37,0,0,1,2.21,1.66s-.09.51-.52.51-.6-.33-.6-.33a1.5,1.5,0,0,0-1.3-1c-4.06,0-6.78,13-4.67,13,1.64,0,6.11-8.44,7-10.29.61-1.27,1.3-2.18,2.12-2.18.36,0,.57.27.57.7a30.59,30.59,0,0,0-2.51,12C79.39,41.49,79.72,42.27,80.33,42.27Z"/><path class="cls-2" d="M1,.16h1V2.32C2.11,2,2.5,0,4.36,0c1,0,2.35.18,2.35,1.77A1.69,1.69,0,0,1,5,3.55c1.38.13,2.42.57,2.41,2.13,0,2.17-2,2.12-3.7,2.12H1Zm1,3.49v4H3.79c1.66,0,2.52-.1,2.52-1.94,0-1.59-.85-2-2.37-2Zm0-.17H4.36c.66,0,1.27-.41,1.27-1.81C5.63.45,5,.18,4.36.18c-2.07,0-2.27,2.68-2.31,3.3Z"/><path class="cls-2" d="M8.05,5.06a2.78,2.78,0,0,1,3.06-2.89c2.3,0,2.54,1.59,2.54,3.42H9.18C9.31,6.87,10,7.8,11.11,7.8a3.86,3.86,0,0,0,2.6-.91l.08.11a3.71,3.71,0,0,1-2.68,1A2.76,2.76,0,0,1,8.05,5.06Zm1.13.34h4.26c0-1.65-.32-3.06-2.33-3.07-1.6,0-2,1.79-1.94,3.07Z"/><path class="cls-2" d="M14.45,5.81A1.81,1.81,0,0,1,15.87,4l-1-.57c.43-.73,1-1.24,3-1.23,1.39,0,2.51.29,2.51,2.19V7.81h-1V5.06C19,6.53,18.58,8,16.77,8,15.88,8,14.45,7.83,14.45,5.81Zm1.07.11c0,1.43.58,1.89,1.24,1.89,1,0,1.73-.4,2.13-1.9a9.84,9.84,0,0,0,.35-1.86H16.76C16.1,4.05,15.52,4.55,15.52,5.92Zm1.24-2.06h2.5c0-1.11-.09-1.55-1.47-1.55a1.6,1.6,0,0,0-1.73,1.61A3.31,3.31,0,0,1,16.76,3.86Z"/><path class="cls-2" d="M21.39,4.85V2.33h1.05V6.22c0,1.19.52,1.59,1.18,1.59,2.2,0,2.51-3.89,2.51-5.48h1l0,5.48H26.13V4.61C25.9,5.94,25.31,8,23.64,8,21.74,8,21.39,6.45,21.39,4.85Z"/><path class="cls-2" d="M27.89,2.51V2.33h.94V.18h1.05V2.33h2.55v.18H29.88V6.22c0,1.2.54,1.59,1.19,1.59,1,0,1.69-.76,2.11-2.26l.17,0C33.05,6.71,32.41,8,31.07,8c-2.22,0-2.22-1.54-2.23-3.14V2.51Z"/><path class="cls-2" d="M33.3,2.34h1.19l3,5,1.77-5h.2c-.09.24-1.91,5.3-2.56,7.19a1.09,1.09,0,0,1-1.08.69A1.17,1.17,0,0,1,34.63,9a1.21,1.21,0,0,1,1.2-1.21h.83ZM35.82,10a1,1,0,0,0,1-.57c.13-.38.32-.9.51-1.48H35.85a1,1,0,0,0-1,1h0a1,1,0,0,0,1,1Z"/><path class="cls-2" d="M.7,9.92h.45v1.34a1.58,1.58,0,0,1,.79-.18c.77,0,1.4.18,1.4,1.22a1.14,1.14,0,0,1-1.13,1.29c-.52,0-.77-.27-1-.85a2.2,2.2,0,0,1-.09-.43v1.2H.7Zm.62,2.78c.18.65.48.81.9.81s.66-.52.66-1.21c0-1-.36-1.15-.94-1.15a1.67,1.67,0,0,0-.79.18A4.86,4.86,0,0,0,1.32,12.7Z"/><path class="cls-2" d="M3.41,11.16h.51L5.23,13.3,6,11.16h.08c0,.1-.82,2.27-1.1,3.09a.47.47,0,0,1-.47.3A.5.5,0,0,1,4,14.07v0a.51.51,0,0,1,.5-.52h.38ZM4.5,14.47a.42.42,0,0,0,.41-.24c0-.16.13-.39.22-.65H4.5a.45.45,0,0,0,0,.89Z"/><path class="cls-2" d="M5,43.22c5.17,0,8.2-3.79,8.2-8.56,0-6.21-7.11-6.84-7.11-11.41,0-3.75,4.09-7.47,7.87-7.47,1.3,0,1.09,1.66,1.09,1.66A2.61,2.61,0,0,0,14,17.32c-2.42,0-5.57,2.66-5.57,6,0,4.15,7.08,5.6,7.08,11.32C15.51,39.34,11.15,44,5,44c-8.56,0-5-10.4,1.91-10.4A1.14,1.14,0,0,1,8,34.66C2.14,34.66-1.31,43.22,5,43.22ZM14.6,23.4c0-4.08,1-6.84,2.54-6.84a.73.73,0,0,1,.73.72v0a9,9,0,0,0-2.21,6.38C15.66,24,14.6,23.89,14.6,23.4Z"/><path class="cls-2" d="M22.4,38.38c2.3,0,5.15-6,5.15-11.8v-.37a4.71,4.71,0,0,1-2.15-2.93,1.35,1.35,0,0,1,1.15-1.09c.82,0,1.61,1.72,1.88,3.35a3.24,3.24,0,0,0,1.81.65,1.94,1.94,0,0,0,1-.24A1.07,1.07,0,0,1,30.12,27a4.65,4.65,0,0,1-1.61-.31c-.06,5.78-2.9,12.74-6.44,12.74C15.32,39.47,18.89,25,24.18,25a.9.9,0,0,1,.94.72C21.1,25.7,18.5,38.38,22.4,38.38Z"/><path class="cls-2" d="M42.49,24.16S40.65,26,40.65,30.27c0,.15-.06.24-.16.24-1.36,0-1.44-3.15-.6-5.17-2.93,2.57-7.14,11.22-7.14,13a.41.41,0,0,1-.42.36c-.73,0-.94-.76-.94-2.39,0-5.78,1.33-11.83,3.11-11.83.4,0,.58.24.58.67a60.7,60.7,0,0,0-2,9h.22c1.92-4.42,5.53-10.65,8.5-10.65a.66.66,0,0,1,.69.62Z"/><path class="cls-2" d="M46.48,38.38c2.3,0,5.15-6,5.15-11.8v-.37a4.71,4.71,0,0,1-2.15-2.93,1.35,1.35,0,0,1,1.15-1.09c.82,0,1.61,1.72,1.88,3.35a3.24,3.24,0,0,0,1.81.65,1.94,1.94,0,0,0,1-.24A1.07,1.07,0,0,1,54.2,27a4.65,4.65,0,0,1-1.61-.31c-.06,5.78-2.9,12.74-6.44,12.74C39.4,39.47,43,25,48.26,25a.9.9,0,0,1,.94.72C45.18,25.7,42.58,38.38,46.48,38.38Z"/><path class="cls-2" d="M61.52,15.84a.43.43,0,0,1,.48.37.2.2,0,0,1,0,.11,50.12,50.12,0,0,0-2.78,8.62c-.67,2.73-1.24,5.81-1.64,8.44h.25c1.54-4,4-8.86,6.89-8.86,3.81,0,2.09,6.81-2,8.11.87.75,1.72,7.74,4.05,7.74A1.32,1.32,0,0,0,68,39.8c.54,0-.33,1.6-1.61,1.6-3.57,0-5.23-7.95-5.81-8.74a.66.66,0,0,1-.27-.36c4.3,0,6.14-6.93,4.06-6.93-3,0-7.29,11.92-7.29,12.89a.38.38,0,0,1-.4.36h0c-.66,0-.91-.76-.91-2.41C55.77,26.09,59.25,15.84,61.52,15.84Z"/><path class="cls-2" d="M79.76,41.55c.84,0,1.21-1.27,1.21-1.27a.45.45,0,0,1,.42-.33c.3,0,.21.33.21.33s-.72,2.3-1.93,2.3c-1.78,0-2.63-2.66-2.63-5.93a27,27,0,0,1,.33-4h-.3c-1.84,3.15-4.26,6.57-5.78,6.57-5.26,0-1.48-15,5.18-15a2.36,2.36,0,0,1,2.2,1.67s-.09.51-.51.51-.6-.33-.6-.33a1.5,1.5,0,0,0-1.31-1c-4,0-6.77,13-4.66,13,1.63,0,6.11-8.44,7-10.29.61-1.28,1.3-2.18,2.12-2.18.36,0,.57.27.57.69a30.65,30.65,0,0,0-2.51,12C78.82,40.77,79.15,41.55,79.76,41.55Z"/></g></g></g></g></svg>